# Blender v2.75 (sub 0) OBJ File: 'rock_group_3.blend'
# www.blender.org
mtllib rock_group_3.mtl
o Cube_cell.003_cell.008_Mesh.016
v -2.831422 0.209180 -2.832130
v -0.907557 -0.010663 -3.569742
v -3.594052 -0.870504 -4.499532
v -1.226482 -0.872001 -4.955578
v -2.758880 -0.420657 -2.457288
v -1.637690 -0.400720 -2.982809
v -2.845575 -0.871871 -2.546842
v -2.255505 -0.871924 -2.826736
v -1.387630 1.789604 0.040631
v -1.387249 -0.871989 0.040567
v -1.724354 1.790070 2.298765
v -1.791016 -0.871878 2.744436
v -1.898066 0.799382 3.461932
v -1.340442 1.790425 0.047702
v -0.340996 -0.871831 0.197741
v -0.852929 1.790106 0.414864
v -1.425374 1.789914 2.053930
v 0.960113 -0.871887 1.178177
v -1.644802 -0.871786 2.761217
v 0.229765 -0.871890 2.744714
v 0.956946 -0.843959 1.181426
v -0.330837 -0.031527 3.034738
v 0.278547 -0.619943 2.618575
v -1.584024 0.598449 3.411060
v -0.401492 -0.051106 3.113062
v 0.225973 -0.854994 2.751795
v 1.411370 0.198974 1.821691
v 0.201709 -0.526779 0.669396
v 2.549109 -0.849545 1.539974
v 0.835420 1.690365 1.017930
v 0.819871 1.676646 1.003729
v 0.301462 -0.870870 0.444758
v 2.573085 -0.871607 1.534005
v -0.251100 0.730590 0.023744
v 0.218854 -0.871692 -0.906711
v 2.606434 -0.871653 1.495513
v 3.599996 -0.871669 0.347429
v -0.039040 -0.217531 -1.613094
v 1.734647 -0.871696 -1.701342
v 1.259799 -0.224934 -2.286607
v 1.329655 -0.225293 -2.322766
v 2.957428 1.162506 -0.914094
v -0.039040 -0.217531 -1.613094
v 1.259799 -0.224934 -2.286607
v 1.329655 -0.225293 -2.322766
v 1.734647 -0.871696 -1.701342
v -0.251100 0.730590 0.023744
v 0.819871 1.676646 1.003729
v 0.835420 1.690365 1.017930
v 1.411370 0.198974 1.821691
v 2.549109 -0.849545 1.539974
v 2.573085 -0.871607 1.534005
v 2.606434 -0.871653 1.495513
v 3.599996 -0.871669 0.347429
vn 0.625200 -0.719600 0.302200
vn -0.927200 0.106900 0.359000
vn -0.000600 -1.000000 -0.000400
vn -0.928500 0.106100 0.356000
vn 0.358300 0.507800 0.783400
vn 0.414400 -0.253400 0.874100
vn 0.626700 -0.718300 0.302200
vn -0.097500 0.855200 -0.509100
vn 0.592000 0.178000 -0.786100
vn 0.148500 0.000000 -0.988900
vn -0.989000 -0.000000 -0.147600
vn 0.496600 0.623500 0.603800
vn 0.000600 1.000000 0.000300
vn 0.594100 0.159100 -0.788500
vn 0.906200 0.054000 0.419400
vn 0.905800 0.036700 0.422200
vn 0.906000 0.026300 0.422400
vn 0.050500 -0.376400 0.925100
vn 0.008700 -0.403800 0.914800
vn 0.008000 -0.404500 0.914500
vn -0.000000 -1.000000 0.005600
vn 0.000000 -1.000000 0.000000
vn -0.104300 -0.398500 0.911200
vn -0.017000 0.999900 -0.002700
vn -0.107100 -0.398000 0.911100
vn 0.492600 0.613600 0.617200
vn 0.495400 0.623500 0.604900
vn 0.691800 0.232700 0.683600
vn 0.692100 0.233900 0.682800
vn 0.757200 0.597300 0.264400
vn -0.352200 -0.579600 0.734800
vn -0.716100 0.096000 0.691300
vn -0.352000 -0.581100 0.733800
vn -0.716900 0.096400 0.690500
vn -0.948000 -0.312800 0.058100
vn -0.000200 -1.000000 0.000200
vn -0.948400 -0.311700 0.057800
vn -0.307100 -0.751500 -0.583900
vn -0.305800 -0.752400 -0.583400
vn -0.259300 0.820800 -0.509000
vn 0.635500 0.541800 0.550000
vn 0.727200 -0.180900 -0.662100
usemtl Material
s off
f 6//1 8//1 4//1
f 5//2 1//2 7//2
f 4//3 8//3 7//3 3//3
f 7//4 1//4 3//4
f 6//5 2//5 1//5 5//5
f 6//6 5//6 7//6 8//6
f 2//7 6//7 4//7
f 2//8 4//8 3//8 1//8
f 21//9 15//9 14//9 16//9
f 15//10 10//10 9//10 14//10
f 12//11 13//11 11//11 9//11 10//11
f 25//12 22//12 17//12
f 17//13 16//13 14//13 11//13
f 18//14 15//14 21//14
f 23//15 18//15 21//15
f 23//16 26//16 18//16
f 26//17 20//17 18//17
f 26//18 25//18 20//18
f 25//19 24//19 20//19
f 24//20 19//20 20//20
f 19//21 12//21 20//21
f 20//22 12//22 10//22 15//22 18//22
f 19//23 24//23 12//23
f 9//24 11//24 14//24
f 24//25 13//25 12//25
f 24//26 25//26 13//26
f 25//27 17//27 11//27 13//27
f 26//28 23//28 25//28
f 23//29 22//29 25//29
f 23//30 21//30 16//30 17//30 22//30
f 50//31 28//31 51//31
f 28//32 50//32 49//32 48//32
f 51//33 28//33 32//33 52//33
f 47//34 28//34 48//34
f 32//35 28//35 35//35
f 35//36 46//36 37//36 53//36 52//36 32//36
f 43//37 35//37 28//37 47//37
f 44//38 35//38 43//38
f 46//39 35//39 44//39 45//39
f 42//40 41//40 40//40 38//40 34//40 31//40 30//40
f 54//41 42//41 30//41 27//41 29//41 33//41 36//41
f 42//42 54//42 39//42 41//42
