# Blender v2.75 (sub 0) OBJ File: 'rock_group_0.blend'
# www.blender.org
mtllib rock_group_0.mtl
o Cube_cell.007_Mesh.338
v -0.004410 -0.432015 -0.402141
v 0.052991 -0.441232 -0.340941
v -0.065249 -0.459199 -0.295814
v -0.000241 -0.430051 -0.409507
v -0.009355 -0.315076 -0.487941
v -0.032241 -0.213194 -0.536805
v -0.024327 -0.435625 -0.256757
v -0.070132 -0.344989 -0.379537
v 0.070543 -0.444887 -0.318351
v -0.044336 -0.464596 -0.264068
v 0.110082 -0.373552 -0.294660
v 0.098047 -0.406283 -0.309104
v 0.017400 -0.281616 -0.450716
v -0.044934 -0.405133 -0.305046
v 2.017390 -0.396919 -0.497721
v 2.020953 -0.414248 -0.467989
v 1.935264 -0.385184 -0.342553
v 2.128975 -0.370292 -0.223671
v 2.023996 -0.370791 -0.201864
v 2.193551 -0.440547 -0.252850
v 2.418763 -0.423395 -0.296132
v 2.735393 -0.440535 -0.366424
v 2.741657 -0.382005 -0.516973
v 2.225309 -0.440536 -0.606696
v 2.742916 -0.399975 -0.541515
v 2.636807 -0.400160 -0.695600
v 2.295429 -0.420904 -0.842548
v 1.985792 -0.410277 -0.399274
v 1.950144 -0.428377 -0.281644
v 2.163258 -0.417690 -0.772025
v 2.146445 -0.421058 -0.727928
v 2.107371 -0.424017 -0.635991
v 1.988373 -0.436694 -0.209151
v 2.102077 -0.428283 -0.231011
v 2.370317 -0.427084 -0.286748
v 2.734035 -0.367489 -0.350270
v 2.745456 -0.383885 -0.539255
v 2.747296 -0.388561 -0.592698
v -0.643196 -0.331018 0.710800
v -1.274645 -0.223820 1.288052
v -0.766327 -0.427960 0.772121
v -1.527333 -0.005002 0.868637
v -1.487982 -0.036591 0.939376
v -1.384900 -0.114336 1.101897
v -1.310612 -0.428042 1.228952
v -0.937090 -0.436921 0.128230
v -1.138927 -0.051791 0.082642
v -1.329428 0.060625 0.202066
v -1.361428 0.069504 0.221091
v -0.956525 -0.440527 0.124122
v -1.125204 -0.200354 0.086543
v -1.023194 -0.419072 0.691062
v -1.514738 -0.431026 0.885698
v -1.341745 -0.416745 0.188713
v -1.797409 -0.440472 0.374381
v -1.767491 0.066585 0.457529
v -1.270999 -0.203000 1.294042
v -0.842468 -0.435050 0.833023
v -0.631716 -0.418721 0.663017
v -0.706892 -0.402129 0.547337
v -0.720738 -0.399659 0.525581
v -1.766483 0.183837 0.453015
v -1.719437 0.148104 0.528328
v -1.621730 0.068381 0.709847
v -1.176311 -0.424505 1.117793
v -0.901285 -0.440519 0.879992
v -1.163464 0.016077 0.093397
v -0.773550 -0.390272 0.442897
v -1.230557 0.034397 0.137798
v -1.320293 0.057950 0.197270
v -1.125688 -0.194823 0.086380
v -1.142138 -0.431237 0.085716
v -0.214230 0.275610 -1.588485
v -0.060722 0.211633 -1.629172
v 0.164465 0.127461 -1.693872
v 0.629670 -0.440508 -1.617932
v -0.138963 -0.440496 -1.244575
v -0.157935 -0.328063 -1.295125
v 0.300435 0.152079 -1.681347
v 0.410683 0.219036 -1.673576
v 1.149054 0.220400 -1.598847
v 1.372833 0.168104 -1.573525
v 1.034586 -0.440694 -1.576134
v 1.550007 -0.018913 -1.376324
v 1.345090 -0.124371 -1.083017
v 1.226375 -0.195181 -0.971280
v 0.856999 -0.440521 -0.774813
v 0.735426 -0.367638 -0.680069
v 0.568670 -0.343991 -0.652352
v 0.411703 0.069277 -1.202217
v 0.344918 0.268802 -1.602936
v -0.224744 0.376703 -1.511090
v -0.118853 0.077944 -1.015122
v 0.954489 0.041205 -1.321618
v 0.549431 -0.253500 -0.754666
v 1.013520 -0.210562 -0.940661
v 0.012587 -0.236188 -0.698304
v 1.414521 0.077931 -1.451302
v -0.161026 0.040732 -1.489577
v 0.600045 0.311976 -1.659000
v 0.829545 0.291305 -1.634719
v -0.164404 -0.300966 -1.306388
v 0.480883 0.253450 -1.668211
v 1.021034 0.250290 -1.613293
v 0.203288 -0.319641 -0.628581
v 0.428110 -0.334650 -0.643177
v 0.908866 -0.390025 -0.705939
v 0.994200 -0.339618 -0.788409
v 1.041203 -0.311792 -0.833904
v 1.446356 -0.067313 -1.198358
v 1.110466 -0.268019 -0.884364
v 0.034064 -0.301383 -0.608241
v -0.143408 -0.416932 -1.254942
v -0.136354 -0.440497 -1.233270
v -0.013078 -0.440508 -0.809132
v 1.704476 0.078441 -1.490457
v 1.747496 0.103890 -1.532213
v 1.708030 0.110719 -1.536658
v -0.010039 -0.440506 -0.796283
v -0.335347 -0.440623 -1.069800
v -0.913096 0.063909 -1.717569
v -0.672624 0.035938 -1.560394
v -0.458983 -0.013881 -1.405331
v -0.314118 -0.440549 -0.721547
v -1.239668 -0.440715 -1.595037
v -1.199452 0.061798 -1.882753
v -0.420184 0.116391 -0.250028
v -0.445881 0.012677 -1.084637
v -0.426626 0.043945 -0.643917
v -0.426826 0.076587 -0.517421
v -1.339973 -0.263275 -1.762972
v -0.965939 -0.440487 -0.170385
v -0.914341 -0.299638 -0.117444
v -0.916991 -0.304669 -0.118653
v -0.956247 -0.413200 -0.159871
v -1.160760 -0.440625 -0.528864
v -1.452471 -0.440790 -0.930063
v -1.502041 -0.440826 -1.024407
v -1.593817 -0.213789 -1.574005
v -0.665842 0.261189 0.056455
v -0.739521 0.032425 -0.037825
v -1.498483 -0.351464 -1.023911
v -1.396811 0.163385 -1.062300
v -1.651821 0.097988 -1.543900
v -1.189014 -0.349528 -0.605298
v -1.263929 0.070683 -1.849687
v -1.130181 0.087165 -0.682060
v -0.966108 0.116613 -1.349617
v -0.936639 -0.304768 -0.152878
v -0.778123 0.239762 -0.245992
v -0.684364 0.122758 -0.924866
v -0.476772 0.078481 -0.481669
v -1.085101 0.062633 -1.816847
v -0.591627 0.028334 -1.508575
v -1.221606 0.012123 -1.864871
v -1.302682 -0.169425 -1.799462
v -0.924895 -0.330015 -0.129348
v -1.203348 -0.440650 -0.592579
v -1.607511 -0.440857 -1.210627
v -1.658293 -0.343954 -1.306563
v -1.710774 -0.193927 -1.482394
v -0.566090 0.197421 -0.071259
v -0.521261 0.172553 -0.126062
v -0.421120 0.077298 -0.420830
v 0.220647 0.923166 1.762243
v 0.115840 0.905610 1.776212
v 1.489138 -0.197227 1.176275
v 1.463527 -0.135926 1.149896
v 1.397996 0.030458 1.033390
v 1.366905 0.110675 0.976394
v 0.330273 1.059648 1.397047
v 1.457101 -0.473056 1.094857
v 1.466544 -0.472069 1.093443
v 1.304650 0.309664 0.809928
v 0.896116 1.022790 0.517990
v -0.013716 1.014325 1.406614
v 0.097090 -0.490497 1.336620
v 0.368286 -0.464816 1.295456
v 0.441024 -0.464767 1.282245
v 0.609924 -0.466286 1.251051
v 0.852852 -0.473802 1.204494
v 0.927702 -0.474628 1.190621
v 1.180943 -0.501913 1.135915
v -0.425860 0.295119 1.680898
v -0.178388 -0.496171 1.384908
v 1.065632 -0.108605 0.482494
v -0.165164 0.885025 0.560594
v -0.241582 -0.487164 1.191842
v -0.239358 -0.486758 1.199642
v 0.697767 -0.459872 0.054462
v 0.673584 -0.150165 0.085930
v 0.591868 0.557113 0.131501
v -0.743930 0.475102 0.894540
v -0.736952 0.486929 0.890411
v -0.663685 0.254067 0.848470
v -0.595750 0.062093 0.802724
v -0.501416 -0.196134 0.750819
v -0.391129 -0.494464 0.695101
v 0.625912 -0.439692 0.670820
v 0.388445 -0.501819 0.222572
v 1.061477 -0.459719 0.484608
v 0.161520 -0.451029 1.010502
v 0.876600 -0.463849 1.097389
v -0.098608 -0.497827 0.533122
v 0.332767 0.035202 0.201824
v 1.298371 0.034284 0.853942
v 1.279937 -0.497471 0.815758
v -0.235583 -0.486777 1.188366
v -0.060332 0.037741 0.530427
v 0.392677 0.571544 0.267852
v -0.506615 0.079873 0.748726
v -0.097489 0.512457 0.506805
v -0.453464 0.455835 0.724689
v 1.348671 0.157605 0.942969
v 1.296571 0.332797 0.791958
v -0.100569 -0.501924 1.368936
v 1.094678 -0.021238 0.527148
v 0.980384 -0.455605 0.335734
v 0.765764 -0.445100 0.124598
v 0.639974 0.029389 0.084731
v 0.589186 0.320669 0.086491
v -0.250151 -0.487140 1.163999
v -0.535368 0.847572 0.745377
v -0.528400 0.859273 0.741248
v -0.423115 -0.404609 0.715901
v 0.564322 0.789076 0.145788
v 0.573580 0.711388 0.140981
v 1.489775 -0.189261 1.178649
v 0.344239 0.912156 0.237919
v 0.533515 0.925030 0.139671
v -0.566539 -0.016566 0.788469
v 0.245930 0.904976 0.285123
v -0.098438 0.888734 0.519530
vn 0.067800 -0.975200 -0.210500
vn 0.075100 -0.973300 -0.217000
vn 0.708100 -0.358800 -0.608200
vn -0.799200 0.380600 0.465100
vn -0.103200 -0.968000 -0.228700
vn 0.985600 -0.162400 0.048100
vn 0.804500 0.361900 -0.470900
vn 0.375400 0.906500 0.193300
vn 0.032700 -0.999400 -0.012400
vn -0.863600 0.076300 0.498400
vn -0.841800 0.028000 0.539100
vn 0.102500 -0.054100 -0.993300
vn 0.595700 -0.792200 0.132200
vn -0.014200 -0.801300 0.598200
vn 0.205200 0.871800 0.444900
vn -0.026200 0.564300 -0.825200
vn 0.044700 0.610200 -0.791000
vn 0.155800 0.785200 0.599400
vn 0.151200 0.828800 0.538800
vn 0.154900 0.817400 0.554800
vn 0.036100 0.729800 0.682700
vn -0.785100 0.203200 0.585100
vn 0.005900 0.993200 -0.115900
vn -0.884800 0.032700 0.464900
vn -0.823100 0.268900 0.500200
vn 0.046200 0.997400 0.055400
vn -0.871500 0.127100 0.473600
vn 0.187200 0.975800 -0.112800
vn -0.822100 0.319900 0.471000
vn 0.062500 0.985000 -0.161100
vn -0.928800 0.161800 0.333400
vn 0.372000 0.924600 -0.081900
vn 0.697800 0.576700 0.425000
vn -0.115200 0.941300 0.317200
vn -0.709300 0.569100 0.416000
vn 0.064100 -0.994500 0.082600
vn -0.482200 0.051200 -0.874500
vn -0.081100 -0.996200 -0.031200
vn -0.007200 -0.999000 -0.043100
vn -0.017500 -0.998800 -0.046300
vn 0.078000 -0.991500 -0.104600
vn -0.587500 -0.027200 -0.808800
vn -0.117700 -0.991800 -0.050200
vn -0.050600 -0.993300 -0.103500
vn 0.874300 0.004500 -0.485300
vn -0.029300 -0.994700 -0.098900
vn -0.483900 0.030200 -0.874600
vn -0.542100 0.047400 -0.839000
vn -0.476700 -0.040200 -0.878100
vn -0.420400 -0.138600 -0.896700
vn -0.563400 0.026500 -0.825800
vn 0.838900 -0.070400 -0.539700
vn -0.199500 0.787800 0.582600
vn 0.439400 -0.493000 0.750900
vn -0.040800 0.770600 0.636000
vn -0.737500 -0.419500 -0.529200
vn -0.744000 0.374100 0.553700
vn -0.677500 -0.667900 -0.308100
vn -0.676100 -0.668900 -0.308900
vn 0.199700 -0.213700 0.956300
vn 0.201200 -0.207900 0.957200
vn 0.046600 -0.989300 -0.138100
vn -0.135700 -0.990700 -0.012200
vn -0.118200 -0.989600 -0.082100
vn 0.077300 -0.997000 0.006900
vn 0.999000 0.008600 0.044900
vn -0.081000 -0.991000 -0.106600
vn 0.085200 -0.994700 -0.057500
vn 0.967400 -0.178000 0.180000
vn 0.273300 -0.943600 -0.187000
vn -0.022800 0.995900 -0.087600
vn 0.610400 -0.315800 0.726400
vn 0.208800 -0.006400 -0.977900
vn 0.609600 -0.317600 0.726400
vn 0.802900 0.365000 -0.471400
vn 0.202100 -0.011300 -0.979300
vn -0.099800 -0.993800 -0.048400
vn 0.022500 -0.999700 -0.004700
vn 0.001500 -0.993500 -0.113800
vn -0.859500 0.003500 0.511100
vn -0.030900 -0.992000 -0.122200
vn -0.847500 -0.014700 0.530500
vn -0.056400 -0.997900 0.031100
vn -0.875100 -0.006500 0.483900
vn -0.442300 0.105700 -0.890600
vn -0.456100 0.036600 -0.889200
vn -0.865400 -0.031000 0.500100
vn -0.564300 -0.073700 -0.822300
vn -0.502800 -0.028900 -0.863900
vn 0.370200 0.907400 0.199200
vn 0.170400 -0.983700 0.057300
vn 0.100700 -0.050400 -0.993600
vn -0.000100 -1.000000 0.000000
vn 0.100700 -0.048700 -0.993700
vn 0.596600 -0.791600 0.132200
vn -0.394300 -0.431300 -0.811500
vn -0.014800 -0.802100 0.596900
vn 0.076600 0.849800 0.521500
vn -0.978600 -0.179100 0.101000
vn -0.318800 0.609300 -0.726100
vn -0.994900 0.054900 0.084100
vn 0.018600 0.835500 0.549200
vn -0.266300 0.653700 -0.708400
vn 0.104100 0.796900 0.595000
vn 0.092600 0.754400 0.649800
vn -0.951500 -0.107300 0.288400
vn 0.191800 0.736500 0.648700
vn 0.068800 0.868900 0.490300
vn 0.044000 0.736100 0.675500
vn 0.127900 0.818400 0.560200
vn 0.210500 0.751600 0.625200
vn -0.959800 -0.030800 0.279000
vn 0.354000 0.829600 0.431800
vn 0.076200 0.814600 0.575000
vn -0.973100 -0.002600 0.230200
vn -0.970900 -0.084500 0.224100
vn 0.095700 0.689600 0.717800
vn 0.443600 -0.471000 -0.762500
vn 0.000200 -1.000000 0.000100
vn 0.442800 -0.471900 -0.762400
vn -0.494900 -0.728400 -0.473900
vn 0.441900 -0.472100 -0.762800
vn 0.572000 -0.463800 0.676500
vn 0.970300 0.234700 -0.059100
vn 0.571300 -0.463200 0.677500
vn -0.860200 0.232000 0.454200
vn -0.869700 0.031900 0.492600
vn -0.620300 -0.039800 -0.783300
vn -0.787500 0.205000 0.581200
vn -0.604300 -0.068500 -0.793800
vn -0.813900 0.204000 0.544000
vn 0.068700 0.988900 -0.131700
vn -0.465400 -0.108600 -0.878400
vn -0.833500 0.115900 0.540300
vn 0.174800 0.976000 -0.130100
vn -0.865700 0.060300 0.496800
vn 0.366100 0.926100 -0.091600
vn 0.342000 0.919800 -0.192100
vn 0.257200 0.941700 -0.216900
vn -0.140900 0.958600 -0.247600
vn 0.031300 0.999500 -0.009200
vn 0.174500 -0.293900 0.939800
vn 0.699100 0.573900 0.426400
vn 0.171700 -0.297200 0.939300
vn 0.699100 0.574700 0.425500
vn -0.508700 -0.061000 -0.858800
vn -0.711200 0.565700 0.417300
vn 0.170700 -0.298000 0.939200
vn -0.885000 -0.378100 0.271700
vn -0.442500 -0.045400 -0.895600
vn -0.132700 0.983000 -0.126600
vn 0.699600 0.126900 -0.703200
vn 0.698800 0.126100 -0.704100
vn 0.842000 -0.000500 -0.539400
vn 0.161400 -0.985600 0.051100
vn -0.046800 -0.998900 -0.002100
vn -0.356400 -0.072900 -0.931500
vn 0.060900 -0.997700 0.029600
vn -0.356500 -0.056500 -0.932600
vn 0.851900 -0.101500 -0.513800
vn 0.039000 -0.992900 -0.112500
vn -0.549300 0.162300 -0.819700
vn 0.913100 -0.084600 -0.398800
vn 0.106700 -0.994100 0.019200
vn -0.078700 -0.996600 -0.024700
vn 0.054200 -0.998400 -0.017600
vn -0.565600 -0.016400 -0.824500
vn 0.874200 -0.006100 -0.485500
vn 0.821400 0.101600 -0.561300
vn 0.080900 -0.996300 0.028700
vn -0.440500 -0.015100 -0.897600
vn -0.448500 -0.141300 -0.882500
vn -0.534100 -0.016500 -0.845300
vn -0.512700 -0.034900 -0.857800
vn -0.520800 0.019100 -0.853500
vn -0.525000 0.027400 -0.850600
vn -0.505000 -0.003400 -0.863100
vn 0.877900 -0.013300 -0.478600
usemtl None
s off
f 1//1 2//1 9//1 10//1 3//1
f 2//2 1//2 4//2
f 2//3 4//3 5//3 12//3 9//3
f 19//4 17//4 29//4 33//4
f 21//5 25//5 22//5
f 37//6 25//6 38//6
f 61//7 39//7 59//7 60//7
f 69//8 39//8 67//8
f 52//9 53//9 55//9 54//9
f 63//10 56//10 64//10
f 62//11 56//11 63//11
f 117//12 83//12 76//12 118//12
f 107//13 87//13 83//13 108//13
f 87//14 107//14 88//14 89//14 106//14
f 93//15 90//15 91//15 92//15
f 92//16 91//16 79//16 75//16 74//16
f 73//17 92//17 74//17
f 97//18 95//18 90//18 93//18
f 95//19 96//19 94//19 90//19
f 105//20 97//20 112//20
f 111//21 96//21 109//21
f 142//22 145//22 147//22 143//22
f 144//23 143//23 148//23 146//23
f 137//24 142//24 138//24
f 145//25 149//25 150//25 147//25
f 143//26 147//26 151//26 148//26
f 135//27 149//27 145//27 136//27 132//27
f 121//28 148//28 122//28
f 141//29 150//29 149//29 134//29 133//29
f 147//30 150//30 152//30 151//30
f 140//31 150//31 141//31
f 128//32 151//32 152//32 129//32
f 171//33 165//33 175//33
f 171//34 176//34 166//34 165//34
f 176//35 224//35 223//35 166//35
f 199//36 202//36 204//36 200//36
f 190//37 200//37 191//37
f 199//38 201//38 207//38 203//38
f 178//39 202//39 199//39 179//39
f 179//40 199//40 203//40 180//40
f 177//41 202//41 178//41
f 200//42 204//42 209//42 205//42
f 182//43 203//43 207//43 183//43
f 180//44 203//44 181//44
f 168//45 207//45 206//45 169//45
f 181//46 203//46 182//46
f 225//47 209//47 204//47 198//47
f 205//48 209//48 212//48 210//48
f 209//49 211//49 213//49 212//49
f 229//50 210//50 212//50 232//50
f 232//51 212//51 233//51
f 12//52 5//52 6//52 13//52 11//52
f 7//53 11//53 13//53 14//53
f 9//54 12//54 11//54 7//54 10//54
f 6//55 8//55 14//55 13//55
f 8//56 6//56 5//56 4//56 1//56 3//56
f 14//57 8//57 3//57 10//57 7//57
f 15//58 16//58 28//58 29//58 17//58
f 16//59 15//59 30//59 31//59 32//59
f 35//60 18//60 19//60 33//60 34//60 20//60
f 18//61 35//61 21//61 22//61 36//61
f 33//62 29//62 28//62 34//62
f 32//63 24//63 20//63 34//63 28//63 16//63
f 31//64 24//64 32//64
f 20//65 24//65 25//65 21//65 35//65
f 22//66 25//66 23//66 36//66
f 30//67 27//67 24//67 31//67
f 26//68 25//68 24//68 27//68
f 23//69 25//69 37//69
f 38//70 25//70 26//70
f 15//71 17//71 19//71 18//71 36//71 23//71 37//71 38//71 26//71 27//71 30//71
f 39//72 57//72 40//72 58//72 41//72 59//72
f 47//73 46//73 50//73 71//73
f 58//74 40//74 45//74 65//74 66//74
f 46//75 47//75 67//75 39//75 61//75 68//75
f 71//76 50//76 72//76 51//76
f 65//77 52//77 66//77
f 45//78 53//78 52//78 65//78
f 60//79 41//79 58//79 66//79 52//79 68//79 61//79
f 53//80 45//80 40//80 57//80 44//80
f 41//81 60//81 59//81
f 43//82 53//82 44//82
f 50//83 52//83 54//83 72//83
f 42//84 55//84 53//84 43//84
f 55//85 56//85 49//85 48//85 54//85
f 72//86 54//86 48//86 70//86 51//86
f 64//87 56//87 55//87 42//87
f 51//88 70//88 69//88 67//88 47//88 71//88
f 49//89 56//89 62//89
f 39//90 69//90 70//90 48//90 49//90 62//90 63//90 64//90 42//90 43//90 44//90 57//90
f 68//91 52//91 50//91 46//91
f 118//92 76//92 75//92 79//92 80//92 103//92 81//92 82//92
f 76//93 83//93 87//93 119//93 115//93 114//93 77//93
f 81//94 103//94 100//94 101//94 104//94
f 83//95 117//95 116//95 84//95 110//95 85//95 86//95 111//95 109//95 108//95
f 75//96 76//96 77//96 113//96 78//96 102//96 99//96 73//96 74//96
f 119//97 87//97 106//97 105//97 112//97
f 90//98 94//98 101//98 100//98 91//98
f 99//99 93//99 92//99 73//99
f 79//100 91//100 80//100
f 93//101 99//101 102//101
f 85//102 94//102 96//102 86//102
f 91//103 100//103 103//103 80//103
f 101//104 94//104 98//104 104//104
f 89//105 95//105 97//105 105//105 106//105
f 78//106 97//106 93//106 102//106
f 109//107 96//107 95//107 88//107 107//107 108//107
f 110//108 98//108 94//108 85//108
f 86//109 96//109 111//109
f 98//110 82//110 81//110 104//110
f 88//111 95//111 89//111
f 97//112 78//112 113//112 114//112 115//112
f 84//113 98//113 110//113
f 82//114 98//114 116//114 117//114 118//114
f 112//115 97//115 115//115 119//115
f 114//116 113//116 77//116
f 116//117 98//117 84//117
f 120//118 153//118 121//118 122//118 154//118 123//118
f 124//119 132//119 136//119 158//119 137//119 138//119 159//119 125//119 120//119
f 125//120 155//120 126//120 153//120 120//120
f 131//121 125//121 159//121 160//121 161//121 139//121
f 125//122 131//122 156//122 155//122
f 132//123 124//123 127//123 163//123 133//123 134//123 157//123 135//123
f 127//124 124//124 120//124 123//124 128//124 129//124 130//124 164//124
f 133//125 163//125 162//125 140//125 141//125
f 160//126 142//126 143//126 144//126 161//126
f 138//127 142//127 160//127 159//127
f 161//128 144//128 146//128 139//128
f 158//129 145//129 142//129 137//129
f 139//130 146//130 156//130 131//130
f 136//131 145//131 158//131
f 148//132 121//132 153//132 126//132 146//132
f 156//133 146//133 126//133 155//133
f 157//134 149//134 135//134
f 122//135 148//135 151//135 154//135
f 134//136 149//136 157//136
f 151//137 128//137 123//137 154//137
f 162//138 152//138 150//138 140//138
f 164//139 152//139 162//139 163//139 127//139
f 129//140 152//140 130//140
f 130//141 152//141 164//141
f 228//142 165//142 166//142 167//142
f 165//143 228//143 168//143 169//143 170//143
f 167//144 166//144 172//144 173//144
f 165//145 170//145 214//145 174//145 215//145 175//145
f 223//146 213//146 194//146
f 193//147 184//147 166//147 223//147 194//147
f 166//148 184//148 185//148 216//148 177//148 178//148 179//148 180//148 181//148 182//148 183//148 172//148
f 184//149 193//149 195//149 196//149 231//149 197//149 225//149 198//149 222//149 188//149 189//149 185//149
f 213//150 223//150 224//150 187//150
f 175//151 230//151 229//151 232//151 233//151 187//151 224//151 176//151 171//151
f 230//152 175//152 215//152 217//152 186//152 227//152 226//152
f 227//153 186//153 218//153 219//153 190//153 191//153 220//153 221//153 192//153
f 217//154 206//154 207//154 201//154 186//154
f 219//155 199//155 200//155 190//155
f 218//156 201//156 199//156 219//156
f 191//157 200//157 205//157 220//157
f 202//158 208//158 222//158 198//158 204//158
f 220//159 205//159 221//159
f 174//160 206//160 217//160 215//160
f 216//161 208//161 202//161 177//161
f 221//162 205//162 210//162 192//162
f 214//163 206//163 174//163
f 183//164 207//164 173//164 172//164
f 189//165 208//165 216//165 185//165
f 222//166 208//166 188//166
f 210//167 226//167 227//167 192//167
f 206//168 214//168 170//168 169//168
f 207//169 168//169 228//169 167//169 173//169
f 188//170 208//170 189//170
f 197//171 211//171 209//171 225//171
f 210//172 229//172 230//172 226//172
f 231//173 211//173 197//173
f 196//174 211//174 231//174
f 195//175 213//175 211//175 196//175
f 233//176 212//176 213//176 187//176
f 194//177 213//177 195//177 193//177
f 186//178 201//178 218//178
